<?xml version="1.0" standalone="no"?>
<!DOCTYPE svg PUBLIC "-//W3C//DTD SVG 20010904//EN"
 "http://www.w3.org/TR/2001/REC-SVG-20010904/DTD/svg10.dtd">
<svg version="1.0" xmlns="http://www.w3.org/2000/svg"
 width="512.000000pt" height="512.000000pt" viewBox="0 0 512.000000 512.000000"
 preserveAspectRatio="xMidYMid meet">
<metadata>
Created by potrace 1.14, written by Peter Selinger 2001-2017
</metadata>
<g transform="translate(0.000000,512.000000) scale(0.100000,-0.100000)"
fill="#000000" stroke="none">
<path d="M688 4570 c-308 -52 -571 -290 -660 -596 l-23 -79 0 -1335 0 -1335
23 -79 c80 -275 303 -498 578 -578 l79 -23 1335 0 1335 0 78 23 c278 80 495
295 578 574 21 68 23 98 27 427 4 377 2 399 -44 420 -59 27 -79 17 -191 -91
-58 -57 -110 -112 -116 -123 -8 -13 -14 -110 -17 -275 l-5 -255 -32 -68 c-44
-92 -138 -186 -230 -230 l-68 -32 -1289 -3 c-1156 -2 -1295 -1 -1345 14 -148
42 -266 158 -312 305 -18 58 -19 112 -19 1329 0 1217 1 1271 19 1329 38 122
127 224 250 284 l66 32 1300 0 c715 0 1322 -4 1348 -9 l48 -8 100 99 c88 88
99 103 99 135 0 55 -29 83 -118 112 -42 14 -104 30 -136 35 -71 13 -2584 13
-2658 1z"/>
<path d="M4345 4551 c-63 -16 -105 -48 -248 -189 l-147 -147 412 -412 413
-413 148 148 c82 81 158 165 170 187 32 59 31 183 -2 245 -36 68 -503 533
-562 559 -52 23 -140 34 -184 22z"/>
<path d="M2802 3067 l-962 -962 0 -418 0 -417 408 0 407 0 968 968 967 967
-413 413 -412 412 -963 -963z m1002 552 c57 -45 68 -32 -502 -602 -290 -290
-535 -527 -543 -527 -9 0 -28 9 -43 21 -57 45 -68 32 502 602 290 290 535 527
543 527 9 0 28 -9 43 -21z m-1091 -1901 l-168 -168 -77 0 -77 0 -3 138 -3 137
-137 3 -138 3 0 77 0 77 167 167 168 168 217 -217 218 -218 -167 -167z"/>
</g>
</svg>
